<svg width="61" height="11" viewBox="0 0 61 11" fill="none" xmlns="http://www.w3.org/2000/svg">
<path d="M9.46857 2.98153C9.22568 1.17259 7.76829 0.0539774 5.28818 0.0539774C2.7761 0.0539774 1.12056 1.21733 1.12695 3.10938C1.12056 4.57955 2.04741 5.53196 3.96502 5.91548L5.66531 6.25426C6.52184 6.42685 6.91175 6.74006 6.92454 7.23224C6.91175 7.81392 6.27894 8.2294 5.32653 8.2294C4.35494 8.2294 3.70934 7.81392 3.54315 7.01491L0.864879 7.15554C1.12056 9.0348 2.71857 10.1918 5.32014 10.1918C7.86417 10.1918 9.6859 8.89418 9.69229 6.95739C9.6859 5.53835 8.75906 4.68821 6.85423 4.2983L5.07724 3.94034C4.16317 3.74219 3.8244 3.42898 3.83079 2.95597C3.8244 2.3679 4.48917 1.98438 5.33292 1.98438C6.27894 1.98438 6.84144 2.50213 6.97568 3.13494L9.46857 2.98153ZM15.843 10.1918C18.8217 10.1918 20.6754 8.1527 20.6754 5.12926C20.6754 2.08665 18.8217 0.0539774 15.843 0.0539774C12.8643 0.0539774 11.0107 2.08665 11.0107 5.12926C11.0107 8.1527 12.8643 10.1918 15.843 10.1918ZM15.8558 8.08239C14.4815 8.08239 13.7784 6.82315 13.7784 5.11009C13.7784 3.39702 14.4815 2.13139 15.8558 2.13139C17.2045 2.13139 17.9077 3.39702 17.9077 5.11009C17.9077 6.82315 17.2045 8.08239 15.8558 8.08239ZM28.7422 5.8196C28.7486 7.13636 27.8473 7.8267 26.8693 7.8267C25.8402 7.8267 25.1754 7.1044 25.169 5.94744V0.181818H22.446V6.43324C22.4524 8.72798 23.7947 10.1278 25.7699 10.1278C27.2464 10.1278 28.3075 9.36719 28.7486 8.21662H28.8509V10H31.4652V0.181818H28.7422V5.8196ZM33.6433 10H36.3663V4.44531C36.3663 3.23722 37.2484 2.40625 38.4501 2.40625C38.8272 2.40625 39.345 2.47017 39.6007 2.55327V0.137073C39.3578 0.0795453 39.019 0.0411929 38.7441 0.0411929C37.6447 0.0411929 36.7434 0.680398 36.3855 1.89489H36.2832V0.181818H33.6433V10ZM44.9876 10.1918C47.6019 10.1918 49.2447 8.65767 49.3725 6.40128H46.8029C46.6431 7.44957 45.9528 8.03764 45.0195 8.03764C43.7475 8.03764 42.9229 6.97017 42.9229 5.09091C42.9229 3.23722 43.7539 2.17614 45.0195 2.17614C46.0167 2.17614 46.6559 2.83452 46.8029 3.8125H49.3725C49.2575 1.54332 47.538 0.0539774 44.9748 0.0539774C41.9961 0.0539774 40.1552 2.11861 40.1552 5.12926C40.1552 8.11435 41.9641 10.1918 44.9876 10.1918ZM55.5904 10.1918C58.0194 10.1918 59.6557 9.00923 60.0392 7.1875L57.5208 7.02131C57.2459 7.76918 56.5428 8.15909 55.6351 8.15909C54.2736 8.15909 53.4107 7.25781 53.4107 5.79403V5.78764H60.0968V5.03977C60.0968 1.70312 58.0769 0.0539774 55.4817 0.0539774C52.5925 0.0539774 50.7196 2.10582 50.7196 5.13565C50.7196 8.24858 52.5669 10.1918 55.5904 10.1918ZM53.4107 4.10014C53.4682 2.98153 54.3184 2.08665 55.5265 2.08665C56.709 2.08665 57.5272 2.9304 57.5336 4.10014H53.4107Z" fill="black"/>
<path d="M0.212891 13.6371H60.7871V15.3565H0.212891V13.6371Z" fill="black"/>
<a href="https://feathericons.com/">
<rect fill="black" fill-opacity="0" x="0.212891" y="1.10795" width="60.5742" height="21.7841"/>
</a>
</svg>
